<?xml version="1.0" standalone="no"?>
<!DOCTYPE svg PUBLIC "-//W3C//DTD SVG 20010904//EN"
 "http://www.w3.org/TR/2001/REC-SVG-20010904/DTD/svg10.dtd">
<svg version="1.0" xmlns="http://www.w3.org/2000/svg"
 width="16.000000pt" height="16.000000pt" viewBox="0 0 16.000000 16.000000"
 preserveAspectRatio="xMidYMid meet">
<metadata>
Created by potrace 1.15, written by Peter Selinger 2001-2017
</metadata>
<g transform="translate(0.000000,16.000000) scale(0.100000,-0.100000)"
fill="#000000" stroke="none">
<path d="M0 80 l0 -80 80 0 80 0 0 45 0 45 -45 0 c-33 0 -45 -4 -45 -15 0 -10
10 -15 30 -15 20 0 30 -5 30 -15 0 -11 -12 -15 -50 -15 l-50 0 0 50 0 50 65 0
c51 0 65 3 65 15 0 12 -16 15 -80 15 l-80 0 0 -80z"/>
</g>
</svg>
